<svg xmlns="http://www.w3.org/2000/svg" viewBox="0 0 33 33"><defs><style>.cls-1{fill:none;stroke:#ec4435;stroke-miterlimit:10;stroke-width:2px;}.cls-2{fill:#ec4435;}</style></defs><title>Asset 2</title><g id="Layer_2" data-name="Layer 2"><g id="Layer_1-2" data-name="Layer 1"><circle class="cls-1" cx="16.5" cy="16.5" r="15.5"/><g id="Layer_2-2" data-name="Layer 2"><g id="Capa_1" data-name="Capa 1"><path class="cls-2" d="M23.39,10.37H20V9.81A1.81,1.81,0,0,0,18.14,8H14.86a1.81,1.81,0,0,0-1.81,1.81v.56H9.61a.46.46,0,0,0-.46.45.47.47,0,0,0,.46.46h.82v10.8a2.45,2.45,0,0,0,2.45,2.45h7.24a2.45,2.45,0,0,0,2.45-2.45V11.28h.82a.47.47,0,0,0,.46-.46.43.43,0,0,0-.41-.45ZM14,9.79a.91.91,0,0,1,.91-.9h3.28a.91.91,0,0,1,.91.9v.56H14ZM21.64,22.1a1.54,1.54,0,0,1-1.54,1.54H12.86a1.54,1.54,0,0,1-1.54-1.54V11.28H21.64Z"/><path class="cls-2" d="M16.49,22a.45.45,0,0,0,.45-.45V13.4a.45.45,0,0,0-.9,0h0v8.12A.45.45,0,0,0,16.49,22Z"/><path class="cls-2" d="M13.48,21.48a.45.45,0,0,0,.45-.45V13.92a.45.45,0,1,0-.9,0V21A.45.45,0,0,0,13.48,21.48Z"/><path class="cls-2" d="M19.5,21.48A.45.45,0,0,0,20,21V13.92a.45.45,0,1,0-.9,0V21a.42.42,0,0,0,.41.45Z"/></g></g></g></g></svg>