<svg xmlns="http://www.w3.org/2000/svg" viewBox="0 0 31 31"><defs><style>.cls-1{fill:#72bc94;}.cls-2{fill:#fff;}</style></defs><title>Asset 4</title><g id="Layer_2" data-name="Layer 2"><g id="Layer_1-2" data-name="Layer 1"><circle class="cls-1" cx="15.5" cy="15.5" r="15.5"/><path class="cls-2" d="M20.91,11.64l.05,0,0,.05-7.18,7.49,0,0,0-.05,7.18-7.49m0-1a.86.86,0,0,0-.64.26L13,18.5a1,1,0,0,0,.12,1.4,1.16,1.16,0,0,0,.77.32.9.9,0,0,0,.64-.26l7.29-7.61a1,1,0,0,0-.12-1.4,1.13,1.13,0,0,0-.77-.32Z"/><path class="cls-2" d="M10.2,16.34l3.49,2.79,0,0,0,0-3.49-2.79,0,0,0,0m.05-1.16a1.33,1.33,0,0,0-.87.58c-.37.45-.49,1-.28,1.12l4.3,3.44a.31.31,0,0,0,.17.05,1.35,1.35,0,0,0,.87-.58c.36-.45.49-1,.28-1.12l-4.3-3.44a.34.34,0,0,0-.17-.05Z"/></g></g></svg>