<svg id="Capa_1" data-name="Capa 1" xmlns="http://www.w3.org/2000/svg" viewBox="0 0 390.12 482.43"><defs><style>.cls-1{fill:#b2bec3;}</style></defs><title>delete-button</title><path class="cls-1" d="M381.16,57.8H306.07a65.29,65.29,0,0,0-129.71,0H101.27a55.18,55.18,0,0,0-55.11,55.12v2.82A55.16,55.16,0,0,0,81,166.94V427.31a55.18,55.18,0,0,0,55.11,55.12H346.33a55.18,55.18,0,0,0,55.11-55.12V166.94a55.16,55.16,0,0,0,34.83-51.2v-2.82A55.18,55.18,0,0,0,381.16,57.8Zm-140-31.66A39.24,39.24,0,0,1,279.66,57.8H202.78A39.21,39.21,0,0,1,241.21,26.14ZM375.3,427.31a29,29,0,0,1-29,29H136.1a29,29,0,0,1-29-29V170.86H375.3Zm34.84-311.57a29,29,0,0,1-29,29H101.27a29,29,0,0,1-29-29v-2.82a29,29,0,0,1,29-29H381.16a29,29,0,0,1,29,29v2.82Z" transform="translate(-46.16)"/><path class="cls-1" d="M171.14,422.86a13.07,13.07,0,0,0,13.07-13.06V262.64a13.07,13.07,0,0,0-26.14,0V409.79A13.07,13.07,0,0,0,171.14,422.86Z" transform="translate(-46.16)"/><path class="cls-1" d="M241.21,422.86a13.07,13.07,0,0,0,13.07-13.06V262.64a13.07,13.07,0,0,0-26.14,0V409.79A13.08,13.08,0,0,0,241.21,422.86Z" transform="translate(-46.16)"/><path class="cls-1" d="M311.28,422.86a13.07,13.07,0,0,0,13.07-13.06V262.64a13.07,13.07,0,0,0-26.14,0V409.79A13.07,13.07,0,0,0,311.28,422.86Z" transform="translate(-46.16)"/></svg>