<svg xmlns="http://www.w3.org/2000/svg" viewBox="0 0 33 33"><defs><style>.cls-1{fill:#72bc94;stroke-width:0.25px;}.cls-1,.cls-2{stroke:#72bc94;stroke-miterlimit:10;}.cls-2{fill:none;stroke-width:2px;}</style></defs><title>Asset 3</title><g id="Layer_2" data-name="Layer 2"><g id="Layer_1-2" data-name="Layer 1"><path class="cls-1" d="M22.77,13.35,15.48,21a1,1,0,0,1-1.41-.06h0A1,1,0,0,1,14,19.5l7.29-7.61a1,1,0,0,1,1.41.06h0A1,1,0,0,1,22.77,13.35Z"/><path class="cls-1" d="M14.4,21.32l-4.3-3.44c-.21-.16-.09-.67.28-1.12h0c.36-.46.83-.69,1-.53l4.3,3.44c.21.16.08.67-.28,1.12h0C15.07,21.25,14.61,21.48,14.4,21.32Z"/><circle class="cls-2" cx="16.5" cy="16.5" r="15.5"/></g></g></svg>