<svg xmlns="http://www.w3.org/2000/svg" viewBox="0 0 33 33"><defs><style>.cls-1{fill:none;stroke:#72bc94;stroke-miterlimit:10;stroke-width:2px;}.cls-2{fill:#72bc94;}</style></defs><title>Asset 5</title><g id="Layer_2" data-name="Layer 2"><g id="Layer_1-2" data-name="Layer 1"><circle class="cls-1" cx="16.5" cy="16.5" r="15.5"/><path class="cls-2" d="M22.05,16.94v1a4.39,4.39,0,0,1-4.38,4.39H12.3V20.06h5.37a2.12,2.12,0,0,0,2.11-2.12v-1a2.12,2.12,0,0,0-2.11-2.12H16.61v2.56l-4.87-3.69L16.61,10v2.55h1.06A4.39,4.39,0,0,1,22.05,16.94Z"/><path class="cls-2" d="M22.05,16.94v1a4.39,4.39,0,0,1-4.38,4.39H12.3V20.06h5.37a2.12,2.12,0,0,0,2.11-2.12v-1a2.12,2.12,0,0,0-2.11-2.12H16.61v2.56l-4.87-3.69L16.61,10v2.55h1.06A4.39,4.39,0,0,1,22.05,16.94Z"/></g></g></svg>